<svg id="Layer_1" data-name="Layer 1" xmlns="http://www.w3.org/2000/svg" viewBox="0 0 350.01 403"><defs><style>.cls-1{fill:none;}.cls-2{fill:#003b71;}</style></defs><title>Icon - Blue</title><path class="cls-1" d="M175,31.73,27.48,116.9V286.1L175,371.27,322.53,286.1V116.9ZM114.56,166.36,54.11,201.5V131.21l60.45-35.14L175,131.21V201.5ZM295.9,271.79l-60.45,35.14L175,271.79V201.5l60.45,35.14L295.9,201.5Z"/><polygon class="cls-2" points="175 201.5 175 271.79 235.45 306.93 295.9 271.79 295.9 201.5 235.45 236.64 175 201.5"/><path class="cls-2" d="M175,0,0,101V302L175,403,350,302V101ZM322.53,286.1,175,371.27,27.48,286.1V116.9L175,31.73,322.53,116.9V286.1Z"/><polygon class="cls-2" points="175 131.21 114.56 96.07 54.11 131.21 54.11 201.5 114.56 166.36 175 201.5 175 131.21"/></svg>